<svg id="Layer_1" data-name="Layer 1" xmlns="http://www.w3.org/2000/svg" viewBox="0 0 24.87 46.94"><defs><style>.cls-1{fill:#fff;}</style></defs><title>facebooksvg</title><path class="cls-1" d="M10.33,46.94l-2.4-.28-.54-.08V26.24H0V17.79H7.37v-.58c0-2.27,0-4.55,0-6.83A11.51,11.51,0,0,1,8.84,5,9.56,9.56,0,0,1,16,.19a23.78,23.78,0,0,1,6.25,0c.85.08,1.7.21,2.58.32V7.75H23.69A29.71,29.71,0,0,0,20,7.88a3.86,3.86,0,0,0-3.53,4.05c-.07,1.89,0,3.79,0,5.68a.58.58,0,0,0,.05.17h8l-1.29,8.43H16.5V46.59l-3.06.35Z"/></svg>