<svg id="Layer_1" data-name="Layer 1" xmlns="http://www.w3.org/2000/svg" viewBox="0 0 47.47 47.35"><defs><style>.cls-1{fill:#fff;}</style></defs><title>linkedinsvg</title><path class="cls-1" d="M16.85,15.78h9.36V20a11.67,11.67,0,0,1,3.59-3.48,12.33,12.33,0,0,1,8-1.45,10.44,10.44,0,0,1,5.66,2.15,9.66,9.66,0,0,1,3.37,6.16A45.87,45.87,0,0,1,47.42,30c.08,5.61,0,11.22,0,16.83,0,.15,0,.3,0,.5H37.63v-.85c0-5.65,0-11.3-.09-16.95A10.1,10.1,0,0,0,37.15,27a4.39,4.39,0,0,0-4.81-3.44c-3.33.18-5.11,1.83-5.52,5.18a31.09,31.09,0,0,0-.2,3.48c0,4.73,0,9.45,0,14.18v.89H16.85Z"/><path class="cls-1" d="M10.58,47.35H.81V15.79h9.77Z"/><path class="cls-1" d="M5.7,11.4a5.7,5.7,0,1,1,5.7-5.66A5.68,5.68,0,0,1,5.7,11.4Z"/></svg>