<svg id="Layer_1" data-name="Layer 1" xmlns="http://www.w3.org/2000/svg" viewBox="0 0 37.19 45.63"><defs><style>.cls-1{fill:#fff;}</style></defs><title>pinterestsvg</title><path class="cls-1" d="M9.4,44.14c.72-2.44,5.35-9.92,6-12.44a7.92,7.92,0,0,0,6.73,3.22A13.52,13.52,0,0,0,33.1,29.46a19.24,19.24,0,0,0,4.09-12.15c.06-7.09-3.2-12.23-9.51-15.39A19.94,19.94,0,0,0,14.36.54C7.31,2,2.51,6.09.6,13.16A15.17,15.17,0,0,0,2.36,25.55a8.59,8.59,0,0,0,3.49,3.32c.67.33.91.22,1.1-.51s.24-1.19.44-1.76a2.59,2.59,0,0,0-.44-3s0,0,0,0A12.3,12.3,0,0,1,10.23,7.79,13.69,13.69,0,0,1,20.67,5.3a11,11,0,0,1,9.58,8.47,16.2,16.2,0,0,1-2.2,12.74,7.87,7.87,0,0,1-5.65,3.73c-3.49.48-6.13-2.21-5.1-5.63.47-1.54.95-3.07,1.35-4.63a36.57,36.57,0,0,0,.92-4.25,3.89,3.89,0,0,0-1.93-4.1,4.16,4.16,0,0,0-4.68.84,7.15,7.15,0,0,0-1.48,2.06,9.93,9.93,0,0,0-.14,7.68,1.62,1.62,0,0,1,.07.87c-.86,3.72-1.7,7.44-2.64,11.14a26.49,26.49,0,0,0-1,9c.07.72.12,1.43.18,2.2-.19-.07-.34-.1-.47-.16S8.68,46.63,9.4,44.14Z"/></svg>