<svg class="customPageColorsIcons" id="f3eb16a6-afd5-4479-be51-2fd841b48d44" data-name="Layer 1" xmlns="http://www.w3.org/2000/svg" width="7.69mm" height="14.72mm" viewBox="0 0 21.79 41.73">
<title>facebook</title>
<path d="M17.37,7C18.67,7,20,7,21.25,7h.53V.3C21.1.24,20.37.14,19.65.1,18.33,0,17,0,15.67,0a9.77,9.77,0,0,0-5.62,1.74A8.42,8.42,0,0,0,6.67,7.36a19.64,19.64,0,0,0-.23,2.88c0,1.51,0,3,0,4.53v.57H0v7.51H6.4V41.73h7.82V22.88h6.38c.33-2.5.65-5,1-7.55H14.16s0-3.72.06-5.34C14.29,7.78,15.6,7.11,17.37,7Z" fill-rule="evenodd"/>
</svg>