<svg class="customPageColorsIcons" id="Layer_1" data-name="Layer 1" xmlns="http://www.w3.org/2000/svg" viewBox="0 0 201.54 73.23">
<title>monsigneur</title>
<path class="cls-1" d="M193.86,44.63c-2.57.08-5.13.08-7.69,0-.5,0-1.33-.57-1.38-1a32.32,32.32,0,0,1-.07-4.22h10.41V31.64H184.84V29c1.67,0,3.28,0,4.88,0,1.91-.05,4.59.52,5.52-.48s.27-3.67.37-5.6c.07-1.24-.43-1.61-1.64-1.6-4.82.05-9.63,0-14.45,0-.85,0-1.71,0-2.75,0,0,3.09,0,5.95,0,8.81,0,.92-.13,1.58-1.3,1.58s-1.35-.55-1.33-1.52c0-2.32,0-4.63,0-6.95,0-1.14-.26-1.74-1.57-1.69-1.87.08-3.75,0-5.63,0-1.32-.06-1.69.45-1.67,1.76.08,5.32.06,10.63.05,16a16.23,16.23,0,0,1-.25,3.35c-.54,2.38-2,3.32-4.53,3.21-2.24-.09-3.28-1-3.71-3.44a16.41,16.41,0,0,1-.27-3c0-5.13,0-10.26,0-15.39,0-.73-.06-1.46-.1-2.32h-8.55c0,6.78-.08,13.47,0,20.15.09,6,3.48,10.21,9.33,11.82,8.73,2.4,16.44-3.2,16.85-12.23,0-.66.06-1.32.09-1.94,2.49-.32,2.56-.2,2.52,2,0,3.55,0,7.1,0,10.74H195.6c0-2.07-.07-4,0-5.93C195.69,44.94,195.12,44.59,193.86,44.63Z"/><path class="cls-1" d="M62.8,29.15c1.88,0,3.76-.08,5.63,0,1.34.06,2-.34,1.9-1.78s-.07-2.88,0-4.31c0-1.23-.48-1.66-1.67-1.65-4.62,0-9.25,0-13.88,0-1.3,0-1.76.51-1.73,1.79.07,2.63-.05,5.26,0,7.88,0,1.51-.55,1.91-2,1.91-1.79,0-1.57-1.33-1.76-2.32-1.36-7-6.8-11-14.21-10.42A12.32,12.32,0,0,0,23.37,32.58c-.1,3,0,6,0,9h-.05c0,3.13.05,6.26,0,9.38,0,1.39.48,1.91,1.87,1.84a47.45,47.45,0,0,1,5.06,0c1.55.09,1.91-.58,1.85-2-.11-2.75,0-5.5,0-8.26,0-1.18.45-1.73,1.65-1.71,1.68,0,3.38.07,5.06,0s2.25.58,2.2,2.19c-.07,2.69,0,5.38,0,8.07,0,1.3.48,1.79,1.78,1.73,1.68-.07,3.38-.08,5.06,0,1.36.06,1.91-.4,1.86-1.82-.09-2.75,0-5.51-.06-8.25,0-1.35.43-1.94,1.82-1.93s1.72.62,1.7,1.85c-.05,2.5.09,5,0,7.51-.09,1.78.63,2.33,2.29,2.2a23.5,23.5,0,0,1,3.56,0c1.52.12,2.12-.4,2.06-2-.12-2.93,0-5.88-.07-8.81,0-1.64.6-2.26,2.2-2.2,1.75.08,3.5,0,5.25.07,1.3,0,1.83-.52,1.79-1.76,0-1.44-.12-2.87-.11-4.31,0-1.15-.54-1.53-1.62-1.5-1.88,0-3.75,0-5.63,0-.91,0-1.8,0-1.83-1.28S61.81,29.15,62.8,29.15ZM39.08,33c-.87,0-1.74,0-2.61,0h-2c-2.2,0-2.62-.78-1.51-2.72.94-1.67,2.52-1.86,4.2-1.76a3.45,3.45,0,0,1,3.28,2.59C40.79,32.31,40.55,33,39.08,33Z"/><path class="cls-1" d="M145.49,36.3c-.16-6.85-3.51-11.67-9.55-14.47a15.26,15.26,0,0,0-16.45,1.81c-5.31,4-7.3,9.43-6.17,15.88,1.71,9.77,12,15.45,21.54,12,.55-.2,1.51-.52,1.69-.31,1.56,1.94,3.67,1.17,5.58,1.25,2.14.09,4.28,0,6.79,0L142.37,46A15.56,15.56,0,0,0,145.49,36.3Zm-23.92.32L129,44.34C125.39,45.26,120.86,40.8,121.57,36.62Zm14.92,2.91-10.28-10.4c2-1.42,5.82-1,8.23,1.12A8,8,0,0,1,136.49,39.53Z"/><path class="cls-1" d="M90.41,39.34a9.42,9.42,0,0,0,4-10,9.07,9.07,0,0,0-7.92-7.72,52.16,52.16,0,0,0-12-.58,1.27,1.27,0,0,0-1.12,1.43c-.11,2.75,0,5.5,0,8.25V50.79c0,.87-.17,1.83,1.22,1.82,2.56,0,5.11,0,7.92,0V45.68a59,59,0,0,1,5,5.76c.37.46.92,1.08,1.39,1.09,3.48.1,7,0,10.91,0L89.68,40C90,39.67,90.21,39.49,90.41,39.34Zm-7.69-6.1V29.59c1.44.23,2.93.19,2.91,1.88S84.11,33.06,82.72,33.24Z"/><path class="cls-1" d="M11,44.71c-1.66.07-2.11-.49-2.09-2.13C9,36.33,8.9,30.07,9,23.82,9,22,8.62,21.13,6.6,21.39a23.74,23.74,0,0,1-4.3,0c-1.11-.06-1.42.4-1.4,1.41,0,2.38,0,4.76,0,7.13q0,10.32,0,20.64c0,.86-.19,1.8,1.22,1.79,5.5,0,11,0,16.5-.08a1.69,1.69,0,0,0,1.21-1.15c.13-2,.06-4.11.06-6.5C16.74,44.67,13.87,44.58,11,44.71Z"/><path class="cls-1" d="M20.22,23.19V15.85h-8c0,4.86,0,9.53.05,14.2,0,.31.81.86,1.26.88,1.75.09,3.5,0,5.24,0,1.19,0,1.51-.5,1.49-1.58C20.19,27.31,20.22,25.25,20.22,23.19Z"/><path class="cls-1" d="M107.39,21a23.86,23.86,0,0,1-4.31,0c-1.11-.06-1.42.4-1.4,1.42,0,2.37,0,4.75,0,7.13V40h0c0,3.2,0,6.39,0,9.58,0,1.78.36,2.69,2.38,2.43a23.84,23.84,0,0,1,4.31,0c1.1.07,1.41-.4,1.39-1.41,0-2.38,0-4.76,0-7.13,0-3.46,0-6.92,0-10.38h0c0-3.19,0-6.38,0-9.58C109.79,21.67,109.4,20.77,107.39,21Z"/><path class="cls-1" d="M90.58,15.89a20.85,20.85,0,0,1,2.85,0c.54,0,.69-.2.69-.69,0-1.17,0-2.34,0-3.5V6.59h0c0-1.57,0-3.14,0-4.7,0-.87,0-1.13-1-1.19a23.51,23.51,0,0,0-3,0c-.54.06-.69.2-.68.7,0,1.17,0,2.33,0,3.5V10h0c0,1.56,0,3.13,0,4.7C89.41,15.57,89.6,16,90.58,15.89Z"/><path class="cls-1" d="M24.3,15.89a20.83,20.83,0,0,1,2.85,0c.54,0,.69-.2.68-.69,0-1.17,0-2.34,0-3.5V8.38L31,12.58l3.08-4.09V10h0c0,1.56,0,3.13,0,4.7,0,.87.18,1.31,1.17,1.19a20.7,20.7,0,0,1,2.84,0c.55,0,.7-.2.69-.69,0-1.17,0-2.34,0-3.5V6.59h0c0-1.57,0-3.14,0-4.7,0-.87,0-1.13-1-1.19-.59,0-1.61-.09-2.37-.07h-.36c-.87-.15-1.23.58-1.79,1.21l-.37.48-.38.5L31,4.85,28.65,1.79c-.11-.16-.22-.3-.32-.43C27.62.12,25.78.86,24.48.68h-.36l-.3,0c-.54.06-.7.2-.69.7,0,1.17,0,2.33,0,3.5V10h0c0,1.56,0,3.13,0,4.7C23.12,15.57,23.31,16,24.3,15.89Z"/><path class="cls-1" d="M48.56,16.2a7.79,7.79,0,0,0,5.67-2.35,7.75,7.75,0,0,0,2.38-5.68A7.67,7.67,0,0,0,54.23,2.5a8,8,0,0,0-11.35,0,7.75,7.75,0,0,0-2.35,5.67,7.84,7.84,0,0,0,2.35,5.68A7.81,7.81,0,0,0,48.56,16.2ZM46.16,5.8a3.37,3.37,0,0,1,4.77,0,3.13,3.13,0,0,1,1,2.37,3.21,3.21,0,0,1-1,2.4,3.42,3.42,0,0,1-4.77,0,3.32,3.32,0,0,1-1-2.4A3.24,3.24,0,0,1,46.16,5.8Z"/><path class="cls-1" d="M72.67,5.25c0-1.12,0-2.24,0-3.36,0-.87,0-1.13-1-1.19a23.5,23.5,0,0,0-3,0c-.54.06-.69.2-.69.7,0,1.17,0,2.33,0,3.5v2.5L63.47,1h0c-.16-.23-.46-.32-1-.3-.7,0-2.45,0-3.19,0-.5,0-.66.13-.67.54h0v14.4s0,.23,1,.19c.79,0,2.32,0,3,0a.89.89,0,0,0,.53-.17l.09-.13a.73.73,0,0,0,.06-.39c0-1.17,0-2.34,0-3.5V8.79L68,15.39l.18.23h0c.16.24.46.34,1,.27a20.84,20.84,0,0,1,2.85,0c.54,0,.69-.2.68-.69,0-1.17,0-2.34,0-3.5V5.26Z"/><path class="cls-1" d="M78,9.51s.65.15,2,.35,1.4.19,1.4.19c1.21.15,1.19.74,1.12,1-.17.82-1.16.62-2,.58l-1.07-.09-.55-.06c-1.91-.69-2.69.28-2.91,2l0,.3c-.64,1.7.09,2.07,1.76,2.22l.29,0c.68.09,1.41.16,2,.18,1.68,0,3.78.1,5.18-.95a5.78,5.78,0,0,0,2.12-4.08,4.3,4.3,0,0,0-3.82-4.77L82,6.19a9.69,9.69,0,0,1-1.73-.33.73.73,0,0,1-.45-.9c.17-.63.67-.52,2-.43.34,0,.83.07,1.35.13l.31,0c1.76.74,2.11-.28,2.43-1.56C86,3,86,2.8,86,2.64c.58-1.42.39-2.33-1.22-2.29l-.29,0C83.64.18,82.63.05,81.9,0a6.81,6.81,0,0,0-4.7,1.1A5.51,5.51,0,0,0,75.1,5.2,3.84,3.84,0,0,0,78,9.51Z"/><path class="cls-1" d="M114.28,10.67l0,2.68h0c0,.31,0,.61,0,.91,0,1,.2,1.55,1.38,1.6.63,0,1.68,0,2.5,0,.64,0,.82-.26.81-.85s0-1.16,0-1.66h0l0-1.42v-3l4.81,6.93,0,0h4.6V3h0c0-.31,0-.61,0-.91,0-1-.21-1.56-1.38-1.41a13.9,13.9,0,0,1-2.5,0c-.64,0-.82.23-.81.82s0,1,0,1.48h0V7.5L118.94.68h-1.29c-.73-.12-1.86.08-2.58,0s-.8.21-.79.81c0,2.36,0,6.28,0,8.64l.26-.62-.25,1.13Z"/><path class="cls-1" d="M159.38,15c0,.41-.08.88.59.87h4V12.51a29.16,29.16,0,0,1,2.4,2.79c.18.22.44.52.67.53,1.69,0,3.37,0,5.29,0l-4.88-6.1c.18-.16.26-.25.36-.32a4.57,4.57,0,0,0,1.93-4.85A4.41,4.41,0,0,0,165.92.83a27.16,27.16,0,0,0-6-.28.61.61,0,0,0-.54.7c-.05,1.33,0,2.66,0,4ZM164.1,4.7c.7.11,1.43.09,1.42.91s-.74.77-1.42.86Z"/><path class="cls-1" d="M144.39,10A5.75,5.75,0,0,0,149,15.81a6.3,6.3,0,0,0,8.24-6v-7c0-.45,0-.9,0-1.35s-.12-.85-.76-.83c-.92,0-1.84,0-2.76,0-.64,0-.82.22-.81.86,0,2.6,0,4.66,0,7.26a7.46,7.46,0,0,1-.12,1.64A1.87,1.87,0,0,1,150.56,12c-1.1-.05-1.6-.5-1.82-1.68a8.9,8.9,0,0,1-.13-1.46c0-2.41,0-7.14,0-7.34,0-.56-.12-.85-.76-.83-.92,0-1.76,0-2.67,0-.65,0-.83.22-.82.86s0,1.36,0,2C144.38,5.75,144.35,7.43,144.39,10Z"/><path class="cls-1" d="M131,10.57c0,1.75,0,3.49,0,5.28H141.8c0-1,0-2.7,0-3.64,0-.67-.25-.84-.87-.83-1.26,0-3.33,0-4.59,0-.24,0-.66-.28-.68-.47a3.37,3.37,0,0,1,0-1h6.11V5.73H135.7V4.81c.82,0,.88,0,1.66,0,.94,0,3.81.25,4.26-.24s.13-2.17.18-3.12c0-.61-.21-.79-.8-.79-2.37,0-6.28,0-8.65,0H131c0,1.52,0,2.93,0,4.34a1.26,1.26,0,0,1,0,.4V9.86A2.9,2.9,0,0,1,131,10.57Z"/><path class="cls-1" d="M111.43,7.05l-.83,0h-3.09a12.53,12.53,0,0,0-2.78.06.69.69,0,0,0-.21.24,3.2,3.2,0,0,0-.06.46,8,8,0,0,0,0,1c-.05,1.35.06,1.21,2.51,1.22h.19a1.86,1.86,0,0,1-.21.28,3.43,3.43,0,0,1-3.91,1l-.39-.19a3.6,3.6,0,0,1-.71-.54,3.32,3.32,0,0,1-1-2.4,3.35,3.35,0,0,1,3.36-3.36h.37c.1,0,.48,0,.59,0,.59.13,1.07.74,1.61.54a1.37,1.37,0,0,0,.22-.2,6.9,6.9,0,0,1,.61-.6l.24-.22,1.58-1.44s.62-.37,0-.81a8.34,8.34,0,0,0-5.27-2A7.73,7.73,0,0,0,98.63,2.5a7.64,7.64,0,0,0-2.35,5.67,7.72,7.72,0,0,0,2.35,5.68,8,8,0,0,0,11.35,0,7.23,7.23,0,0,0,1.8-2.89h0v0c0-.11.07-.21.1-.31s0,0,0-.06a8.77,8.77,0,0,0,.3-2.08c0-.22,0-.44,0-.64C112.27,7.23,112,7.05,111.43,7.05Z"/><path class="cls-2" d="M1,57.54H5.71a5.15,5.15,0,0,1,1.76.26,2.71,2.71,0,0,1,1.13.71,2.47,2.47,0,0,1,.62,1,4.18,4.18,0,0,1,.16,1.17,2.61,2.61,0,0,1-.61,1.69,2.49,2.49,0,0,1-1.65.88l0,0a1.44,1.44,0,0,1,.56.09,2.88,2.88,0,0,1,.88.46,2.72,2.72,0,0,1,.86.89,3.28,3.28,0,0,1,.34,1.52,3,3,0,0,1-1.11,2.51,4.64,4.64,0,0,1-3,.88H1ZM1.74,63h4c2-.05,3-.88,3-2.49a2,2,0,0,0-.88-1.84,4,4,0,0,0-2.08-.51h-4Zm0,5.95h4Q9,69,9.09,66.23A2.67,2.67,0,0,0,8.81,65,2,2,0,0,0,8,64.17a3.55,3.55,0,0,0-1.09-.43,9.39,9.39,0,0,0-1.19-.08h-4Z"/><path class="cls-2" d="M25.33,63.58a6.92,6.92,0,0,1-1.46,4.47,4.78,4.78,0,0,1-1.73,1.34,5.67,5.67,0,0,1-4.7,0,5,5,0,0,1-1.75-1.34,7.54,7.54,0,0,1,0-9,5,5,0,0,1,4.09-1.83,5,5,0,0,1,4.09,1.83A6.93,6.93,0,0,1,25.33,63.58Zm-10.41,0a6.2,6.2,0,0,0,1.29,4,4.3,4.3,0,0,0,3.57,1.69,4.31,4.31,0,0,0,3.57-1.69,6.93,6.93,0,0,0,0-8,4.36,4.36,0,0,0-3.57-1.68,4.35,4.35,0,0,0-3.57,1.68A6.2,6.2,0,0,0,14.92,63.58Z"/><path class="cls-2" d="M30.31,57.54H31V69h6.64v.65H30.31Z"/><path class="cls-2" d="M41.81,57.54h3.83c2.06,0,3.49.65,4.29,1.84A7.25,7.25,0,0,1,51,63.56a6.85,6.85,0,0,1-1.29,4.3,4.93,4.93,0,0,1-4.14,1.76h-3.8ZM42.52,69h3.15a4.7,4.7,0,0,0,3.17-1.15c1-.8,1.46-2.22,1.49-4.26a7.61,7.61,0,0,0-.49-2.94A3.83,3.83,0,0,0,47,58.32a9.3,9.3,0,0,0-1.5-.14h-3Z"/><path class="cls-2" d="M68.14,57.54l4.62,12.08H72l-1.48-3.88h-5.6l-1.48,3.88h-.78l4.7-12.08Zm2.15,7.56-2.51-6.83h0l-2.6,6.83Z"/><path class="cls-2" d="M77.66,63.66v6H77V57.54h7.33v.64H77.66V63h6v.64Z"/><path class="cls-2" d="M88.7,57.54h4.88a4.55,4.55,0,0,1,2.64.68,2.74,2.74,0,0,1,1.07,2.43,2.91,2.91,0,0,1-2.5,3.09v0a3.83,3.83,0,0,1,1.09.29,2.05,2.05,0,0,1,.65.59A3.3,3.3,0,0,1,97,66.37c0,.64.08,1.26.09,1.84a2.78,2.78,0,0,0,.31,1.41h-.8c0-.11-.07-.24-.11-.38a3.06,3.06,0,0,1-.07-.37,4.3,4.3,0,0,1-.08-.82c0-.61,0-1.22,0-1.82a2.86,2.86,0,0,0-.18-.84,1.76,1.76,0,0,0-.48-.66,2,2,0,0,0-.8-.45,4.3,4.3,0,0,0-1.3-.16H89.41v5.5H88.7Zm4.88,5.94a3.34,3.34,0,0,0,2.16-.68,2.57,2.57,0,0,0,.84-2.1,2.21,2.21,0,0,0-.9-2,3.78,3.78,0,0,0-2.1-.56H89.41v5.3Z"/><path class="cls-2" d="M113,63.58a6.91,6.91,0,0,1-1.45,4.47,4.9,4.9,0,0,1-1.74,1.34,5.67,5.67,0,0,1-4.7,0,5.12,5.12,0,0,1-1.75-1.34,7.58,7.58,0,0,1,0-9,5.5,5.5,0,0,1,8.19,0A6.92,6.92,0,0,1,113,63.58Zm-10.41,0a6.15,6.15,0,0,0,1.3,4,4.62,4.62,0,0,0,7.14,0,7,7,0,0,0,0-8,4.63,4.63,0,0,0-7.14,0A6.15,6.15,0,0,0,102.58,63.58Z"/><path class="cls-2" d="M118,57.54h5a6.35,6.35,0,0,1,1.11.1,3.43,3.43,0,0,1,1.09.49,2.49,2.49,0,0,1,.88,1,4.19,4.19,0,0,1,.32,1.76c0,2.19-1.26,3.3-3.67,3.32h-4v5.38H118Zm.71,6.06h4.12a3.15,3.15,0,0,0,1.37-.28,2.08,2.08,0,0,0,.86-.63,2.28,2.28,0,0,0,.49-.85,3.85,3.85,0,0,0,.12-.94,4.12,4.12,0,0,0-.08-.82,2.73,2.73,0,0,0-.39-.88,2.19,2.19,0,0,0-.82-.74,3.34,3.34,0,0,0-1.45-.28h-4.22Z"/><path class="cls-2" d="M141.61,63.58a7,7,0,0,1-1.46,4.47,5,5,0,0,1-1.73,1.34,5.57,5.57,0,0,1-2.36.51,5.51,5.51,0,0,1-2.34-.51A5,5,0,0,1,132,68.05a7.54,7.54,0,0,1,0-9,5.49,5.49,0,0,1,8.18,0A7,7,0,0,1,141.61,63.58Zm-10.41,0a6.2,6.2,0,0,0,1.29,4,4.62,4.62,0,0,0,7.14,0,6.93,6.93,0,0,0,0-8,4.63,4.63,0,0,0-7.14,0A6.2,6.2,0,0,0,131.2,63.58Z"/><path class="cls-2" d="M146.58,57.54h.71V69h6.65v.65h-7.36Z"/><path class="cls-2" d="M158.09,57.54h.71V69.62h-.71Z"/><path class="cls-2" d="M162.75,58.18v-.64h8.95v.64h-4.13V69.62h-.71V58.18Z"/><path class="cls-2" d="M179.24,57.54l4.63,12.08h-.77l-1.48-3.88H176l-1.49,3.88h-.77l4.7-12.08Zm2.15,7.56-2.51-6.83h0l-2.6,6.83Z"/><path class="cls-2" d="M188.06,57.54h.9l7.39,11.09h0V57.54h.7V69.62h-.84L188.8,58.45h0V69.62h-.71Z"/></svg>