<svg class="customPageColorsIcons" id="4c323711-d1c8-4f87-9769-9fcd969bd70f" data-name="Layer 1" xmlns="http://www.w3.org/2000/svg" width="11.73mm" height="15.15mm" viewBox="0 0 33.24 42.93"><title>pinterest</title><path d="M13.9,28c0,.12-.07.23-.1.33-1.58,6.18-1.75,7.55-3.37,10.42a32,32,0,0,1-2.61,3.89c-.11.14-.21.32-.43.28s-.26-.26-.28-.46a33.16,33.16,0,0,1-.34-5.65c.08-2.47.39-3.32,3.57-16.7a.93.93,0,0,0-.07-.56A9.42,9.42,0,0,1,10,13.3c1.44-4.57,6.62-4.92,7.52-1.15.56,2.33-.92,5.38-2,9.89-.94,3.72,3.44,6.36,7.18,3.65,3.45-2.5,4.79-8.5,4.54-12.75-.5-8.48-9.8-10.31-15.7-7.58-6.76,3.13-8.3,11.5-5.25,15.34.39.49.69.78.56,1.28-.2.77-.37,1.54-.58,2.3A.82.82,0,0,1,5,24.81,7,7,0,0,1,2.22,22.7c-2.59-3.21-3.33-9.56.1-14.94C6.11,1.8,13.17-.6,19.62.13,27.32,1,32.19,6.27,33.1,12.24c.42,2.72.12,9.43-3.7,14.16C25,31.85,17.89,32.21,14.6,28.87,14.35,28.61,14.15,28.31,13.9,28Z" fill-rule="evenodd"/></svg>