<svg class="customPageColorsIcons" id="e5ab2236-f92e-4cc3-a64e-a91b985a5bdc" data-name="Layer 1" xmlns="http://www.w3.org/2000/svg" width="15.41mm" height="15.41mm" viewBox="0 0 43.69 43.69"><title>instagram</title><path d="M36.86,0h-30A6.84,6.84,0,0,0,0,6.83v30a6.83,6.83,0,0,0,6.83,6.83h30a6.83,6.83,0,0,0,6.83-6.83v-30A6.84,6.84,0,0,0,36.86,0ZM31.2,6a1.22,1.22,0,0,1,1.22-1.22h5.27A1.22,1.22,0,0,1,38.91,6V11.3a1.22,1.22,0,0,1-1.22,1.22H32.42A1.22,1.22,0,0,1,31.2,11.3ZM13.79,18.69a8.65,8.65,0,0,1,16.11,0,8.57,8.57,0,0,1,.6,3.15,8.65,8.65,0,1,1-17.3,0A8.52,8.52,0,0,1,13.79,18.69ZM39.07,36.86a2.21,2.21,0,0,1-2.21,2.21h-30a2.21,2.21,0,0,1-2.2-2.21V18.69H8.94a13.28,13.28,0,1,0,26.18,3.15,13.16,13.16,0,0,0-.38-3.15h4.32Z" fill-rule="evenodd"/></svg>