<svg class="customPageColorsIcons" id="d9007fe3-8878-456e-8640-3e29fc18beb3" data-name="Layer 1" xmlns="http://www.w3.org/2000/svg" width="15.86mm" height="12.91mm" viewBox="0 0 44.97 36.59"><title>twitter</title><path d="M13.64,28.64A9.26,9.26,0,0,1,5,22.22a9.14,9.14,0,0,0,4-.12L9.13,22a9.23,9.23,0,0,1-6-4.24,9,9,0,0,1-1.35-4.91A9.15,9.15,0,0,0,5.89,14a9.29,9.29,0,0,1-3.8-5.61,9.14,9.14,0,0,1,1-6.69,26.44,26.44,0,0,0,19.06,9.66c-.05-.37-.11-.69-.15-1a9,9,0,0,1,1.35-6A8.87,8.87,0,0,1,29.6.14a9,9,0,0,1,8.09,2.58.47.47,0,0,0,.49.15A18.71,18.71,0,0,0,43.56.8l.12-.06h.06a9.46,9.46,0,0,1-4,5,17.78,17.78,0,0,0,5.15-1.39l0,0c-.35.46-.69.94-1.06,1.39A18.16,18.16,0,0,1,40.55,9a.31.31,0,0,0-.15.29,25.58,25.58,0,0,1-.17,4.1,27.19,27.19,0,0,1-2.38,8.23,26.53,26.53,0,0,1-5,7.28A24.71,24.71,0,0,1,20.15,36a27.62,27.62,0,0,1-5.15.61,26.1,26.1,0,0,1-14.78-4L0,32.47A18.71,18.71,0,0,0,9.24,31.2,18.48,18.48,0,0,0,13.64,28.64Z" fill-rule="evenodd"/></svg>