<svg id="Layer_1" data-name="Layer 1" xmlns="http://www.w3.org/2000/svg" viewBox="0 0 46.68 46.75"><defs><style>.cls-1{fill:#fff;}</style></defs><title>instagramsvg</title><path class="cls-1" d="M23.36,0C26.67.07,30,.11,33.3.22a14.55,14.55,0,0,1,7.06,1.87,11.79,11.79,0,0,1,5.87,8.69,37.47,37.47,0,0,1,.44,5.8q0,8.37-.1,16.74a14.18,14.18,0,0,1-1.87,7.11A11.84,11.84,0,0,1,36,46.31a38.84,38.84,0,0,1-5.8.43q-8.37,0-16.75-.1a14.16,14.16,0,0,1-7.61-2.17A11.81,11.81,0,0,1,.48,36.08,47.12,47.12,0,0,1,0,29.8c0-4.67,0-9.35,0-14A22.37,22.37,0,0,1,.81,9.27,11.86,11.86,0,0,1,10.71.56,47.62,47.62,0,0,1,17.15.1c2.07-.07,4.14,0,6.21,0Zm0,4.18v.1c-2,0-4,0-6,0a51,51,0,0,0-6.07.44,7.6,7.6,0,0,0-6.23,5,12.65,12.65,0,0,0-.78,4.56c-.06,5.08-.12,10.17-.09,15.25a38.89,38.89,0,0,0,.43,5.91,7.6,7.6,0,0,0,5,6.23,12.87,12.87,0,0,0,4.56.78c5.08.05,10.16.12,15.25.09a39,39,0,0,0,5.91-.43,7.62,7.62,0,0,0,6.23-5,13.2,13.2,0,0,0,.78-4.62c.05-4.36.11-8.73.1-13.1,0-2.2-.08-4.39-.21-6.58A9.31,9.31,0,0,0,40.71,8,8.32,8.32,0,0,0,34,4.51C30.45,4.31,26.92,4.28,23.39,4.18Z"/><path class="cls-1" d="M11.36,23.43a12,12,0,1,1,12,12A12,12,0,0,1,11.36,23.43Zm12,7.8a7.8,7.8,0,1,0-7.82-7.78A7.85,7.85,0,0,0,23.38,31.23Z"/><path class="cls-1" d="M38.65,10.93a2.81,2.81,0,1,1-2.81-2.79A2.85,2.85,0,0,1,38.65,10.93Z"/></svg>