<svg id="Layer_1" data-name="Layer 1" xmlns="http://www.w3.org/2000/svg" viewBox="0 0 56.76 46.35"><defs><style>.cls-1{fill:#fff;}</style></defs><title>twittersvg</title><path class="cls-1" d="M55.19.9a12.29,12.29,0,0,1-4.85,6.35,21.88,21.88,0,0,0,6.42-1.72,22.29,22.29,0,0,1-3.51,4.13c-.63.57-1.32,1.08-2,1.65A1,1,0,0,0,51,12a34.06,34.06,0,0,1-8.43,23.36A30.75,30.75,0,0,1,24,45.8,33.47,33.47,0,0,1,2.06,42.42,22.06,22.06,0,0,1,0,41.18a23.89,23.89,0,0,0,17.05-4.89A12,12,0,0,1,6.14,28.16a12.75,12.75,0,0,0,5.25-.24,11.76,11.76,0,0,1-6.72-4.14,11.49,11.49,0,0,1-2.59-7.37c.86.32,1.67.69,2.51.92a14.5,14.5,0,0,0,2.57.41,12.07,12.07,0,0,1-4.67-7.11A11.37,11.37,0,0,1,3.75,2.2a33.51,33.51,0,0,0,24.1,12.2,11.56,11.56,0,0,1,0-5.1A11.4,11.4,0,0,1,35.92.56,11.22,11.22,0,0,1,47.39,3.34a.9.9,0,0,0,.92.27,24.26,24.26,0,0,0,6.27-2.37Z"/></svg>